{
  "source": "C:\\Users\\Peter\\Desktop\\stuff\\MIUN\\quantitative_research\\video_compression\\videos\\BVI-HD\\BVI-HD_CDVL_videos\\ORIG\\FishAndRock_1920x1080_30fps.mp4",
  "output": "C:\\Users\\Peter\\Desktop\\stuff\\MIUN\\quantitative_research\\video_compression\\compressed_videos\\BVI-HD\\h264\\4\\FishAndRock_1920x1080_30fps_h264.mp4",
  "codec": "h264",
  "ok": "Input #0, mov,mp4,m4a,3gp,3g2,mj2, from 'C:\\Users\\Peter\\Desktop\\stuff\\MIUN\\quantitative_research\\video_compression\\videos\\BVI-HD\\BVI-HD_CDVL_videos\\ORIG\\FishAndRock_1920x1080_30fps.mp4':\n  Metadata:\n    major_brand     : isom\n    minor_version   : 512\n    compatible_brands: isomiso2avc1mp41\n    encoder         : Lavf54.28.101\n  Duration: 00:00:05.00, start: 0.000000, bitrate: 251564 kb/s\n  Stream #0:0[0x1](und): Video: h264 (High 4:4:4 Predictive) (avc1 / 0x31637661), yuv420p(progressive), 1920x1080, 251561 kb/s, 30 fps, 30 tbr, 30 tbn (default)\n    Metadata:\n      handler_name    : VideoHandler\n      vendor_id       : [0][0][0][0]\n[out#0/mp4 @ 000001a760439a40] Codec AVOption b:a (set bitrate (in bits/s)) has not been used for any stream. The most likely reason is either wrong type (e.g. a video option with no video streams) or that it is a private option of some decoder which was not actually used for any stream.\nStream mapping:\n  Stream #0:0 -> #0:0 (h264 (native) -> h264 (libx264))\nPress [q] to stop, [?] for help\n[libx264 @ 000001a7611875c0] using cpu capabilities: MMX2 SSE2Fast SSSE3 SSE4.2 AVX FMA3 BMI2 AVX2\n[libx264 @ 000001a7611875c0] profile High, level 5.0, 4:2:0, 8-bit\n[libx264 @ 000001a7611875c0] 264 - core 165 r3222 b35605a - H.264/MPEG-4 AVC codec - Copyleft 2003-2025 - http://www.videolan.org/x264.html - options: cabac=1 ref=5 deblock=1:0:0 analyse=0x3:0x113 me=hex subme=8 psy=1 psy_rd=1.00:0.00 mixed_ref=1 me_range=16 chroma_me=1 trellis=2 8x8dct=1 cqm=0 deadzone=21,11 fast_pskip=1 chroma_qp_offset=-2 threads=18 lookahead_threads=3 sliced_threads=0 nr=0 decimate=1 interlaced=0 bluray_compat=0 constrained_intra=0 bframes=3 b_pyramid=2 b_adapt=1 b_bias=0 direct=3 weightb=1 open_gop=0 weightp=2 keyint=250 keyint_min=25 scenecut=40 intra_refresh=0 rc_lookahead=50 rc=cbr mbtree=1 bitrate=4000 ratetol=1.0 qcomp=0.60 qpmin=0 qpmax=69 qpstep=4 vbv_maxrate=4000 vbv_bufsize=4000 nal_hrd=none filler=0 ip_ratio=1.40 aq=1:1.00\nOutput #0, mp4, to 'C:\\Users\\Peter\\Desktop\\stuff\\MIUN\\quantitative_research\\video_compression\\compressed_videos\\BVI-HD\\h264\\4\\FishAndRock_1920x1080_30fps_h264.mp4':\n  Metadata:\n    major_brand     : isom\n    minor_version   : 512\n    compatible_brands: isomiso2avc1mp41\n    encoder         : Lavf62.3.100\n  Stream #0:0(und): Video: h264 (avc1 / 0x31637661), yuv420p(tv, progressive), 1920x1080, q=2-31, 4000 kb/s, 30 fps, 15360 tbn (default)\n    Metadata:\n      encoder         : Lavc62.11.100 libx264\n      handler_name    : VideoHandler\n      vendor_id       : [0][0][0][0]\n    Side data:\n      cpb: bitrate max/min/avg: 4000000/0/4000000 buffer size: 4000000 vbv_delay: N/A\nframe=    0 fps=0.0 q=0.0 size=       0KiB time=N/A bitrate=N/A speed=N/A elapsed=0:00:00.52    \nframe=    0 fps=0.0 q=0.0 size=       0KiB time=N/A bitrate=N/A speed=N/A elapsed=0:00:01.09    \nframe=    1 fps=0.6 q=36.0 size=       0KiB time=N/A bitrate=N/A speed=N/A elapsed=0:00:01.61    \nframe=   17 fps=7.6 q=31.0 size=       0KiB time=00:00:00.43 bitrate=   0.9kbits/s speed=0.193x elapsed=0:00:02.24    \nframe=   28 fps=9.9 q=31.0 size=     256KiB time=00:00:00.86 bitrate=2420.2kbits/s speed=0.308x elapsed=0:00:02.81    \nframe=   47 fps= 14 q=32.0 size=     512KiB time=00:00:01.50 bitrate=2796.5kbits/s speed=0.446x elapsed=0:00:03.36    \nframe=   68 fps= 17 q=32.0 size=     768KiB time=00:00:02.20 bitrate=2859.9kbits/s speed=0.564x elapsed=0:00:03.90    \nframe=   94 fps= 21 q=31.0 size=    1024KiB time=00:00:03.00 bitrate=2796.3kbits/s speed=0.679x elapsed=0:00:04.41    \nframe=  122 fps= 25 q=32.0 size=    1536KiB time=00:00:04.00 bitrate=3145.8kbits/s speed=0.81x elapsed=0:00:04.94    \n[mp4 @ 000001a7604414c0] Starting second pass: moving the moov atom to the beginning of the file\n[out#0/mp4 @ 000001a760439a40] video:2090KiB audio:0KiB subtitle:0KiB other streams:0KiB global headers:0KiB muxing overhead: 0.124229%\nframe=  150 fps= 28 q=-1.0 Lsize=    2093KiB time=00:00:04.93 bitrate=3475.2kbits/s speed=0.915x elapsed=0:00:05.39    \n[libx264 @ 000001a7611875c0] frame I:1     Avg QP:28.79  size: 91355\n[libx264 @ 000001a7611875c0] frame P:39    Avg QP:28.05  size: 35893\n[libx264 @ 000001a7611875c0] frame B:110   Avg QP:31.91  size:  5895\n[libx264 @ 000001a7611875c0] consecutive B-frames:  1.3%  0.0%  8.0% 90.7%\n[libx264 @ 000001a7611875c0] mb I  I16..4: 19.3% 74.3%  6.4%\n[libx264 @ 000001a7611875c0] mb P  I16..4:  0.7%  2.7%  0.1%  P16..4: 54.4% 16.2%  6.1%  0.0%  0.0%    skip:19.8%\n[libx264 @ 000001a7611875c0] mb B  I16..4:  0.0%  0.2%  0.0%  B16..8: 45.2%  1.7%  0.3%  direct: 0.5%  skip:52.1%  L0:38.2% L1:59.3% BI: 2.5%\n[libx264 @ 000001a7611875c0] 8x8 transform intra:76.7% inter:78.2%\n[libx264 @ 000001a7611875c0] direct mvs  spatial:90.9% temporal:9.1%\n[libx264 @ 000001a7611875c0] coded y,uvDC,uvAC intra: 66.9% 50.7% 7.4% inter: 9.5% 9.2% 0.0%\n[libx264 @ 000001a7611875c0] i16 v,h,dc,p: 20% 27% 21% 31%\n[libx264 @ 000001a7611875c0] i8 v,h,dc,ddl,ddr,vr,hd,vl,hu: 16%  5%  5%  8% 16% 12% 17%  9% 13%\n[libx264 @ 000001a7611875c0] i4 v,h,dc,ddl,ddr,vr,hd,vl,hu:  9%  4%  2%  8% 17% 14% 20%  9% 17%\n[libx264 @ 000001a7611875c0] i8c dc,h,v,p: 42% 30% 16% 12%\n[libx264 @ 000001a7611875c0] Weighted P-Frames: Y:35.9% UV:15.4%\n[libx264 @ 000001a7611875c0] ref P L0: 63.3% 21.5% 10.0%  2.7%  2.2%  0.4%  0.0%\n[libx264 @ 000001a7611875c0] ref B L0: 95.9%  3.1%  0.8%  0.2%\n[libx264 @ 000001a7611875c0] ref B L1: 98.8%  1.2%\n[libx264 @ 000001a7611875c0] kb/s:3423.43\n",
  "seconds": 5.660451650619507,
  "probe_out": {}
}